<svg id="Layer_1" data-name="Layer 1" xmlns="http://www.w3.org/2000/svg" viewBox="0 0 24.81 30"><defs><style>.cls-1{fill:#3d58a6;}</style></defs><title>youtube</title><path class="cls-1" d="M125.6,709.94V706.4q0-1.13-.65-1.13a1.06,1.06,0,0,0-.74.36v5.05a1.06,1.06,0,0,0,.74.36q0.65,0,.65-1.11h0Zm4.15-2.75h1.49v-0.77q0-1.15-.74-1.15t-0.74,1.15v0.77Zm-12.88-6v1.58h-1.8v9.54H113.4v-9.54h-1.76v-1.58h5.23Zm4.53,2.84v8.28H119.9v-0.9a2.4,2.4,0,0,1-1.71,1,0.89,0.89,0,0,1-.95-0.63,3.84,3.84,0,0,1-.14-1.22V704h1.49v6.09a3.41,3.41,0,0,0,0,.59,0.31,0.31,0,0,0,.34.34,1.32,1.32,0,0,0,.95-0.7V704h1.51Zm5.68,2.5v3.29a5.88,5.88,0,0,1-.16,1.65,1.16,1.16,0,0,1-1.2.95,2,2,0,0,1-1.53-.92v0.81h-1.51V701.19h1.51v3.63a2,2,0,0,1,1.53-.9,1.16,1.16,0,0,1,1.2.95A6,6,0,0,1,127.09,706.53Zm5.66,2.91v0.2a7.53,7.53,0,0,1,0,1,2.12,2.12,0,0,1-.34.9,2,2,0,0,1-1.8.9,2.17,2.17,0,0,1-1.83-.86,3.17,3.17,0,0,1-.47-1.94v-2.91a3.29,3.29,0,0,1,.45-1.94,2.14,2.14,0,0,1,1.8-.86,2,2,0,0,1,1.76.86,3.23,3.23,0,0,1,.47,1.94v1.71h-3v1.47q0,1.15.77,1.15a0.65,0.65,0,0,0,.68-0.59s0-.07,0-0.16,0-.21,0-0.37v-0.48h1.53Zm-10.17-18.59v3.52q0,1.15-.72,1.15t-0.72-1.15v-3.52q0-1.17.72-1.17T122.58,690.86Zm12,16.08a28.85,28.85,0,0,0-.43-5.86,3.09,3.09,0,0,0-1-1.66,3,3,0,0,0-1.71-.78,92.78,92.78,0,0,0-9.29-.34,92.47,92.47,0,0,0-9.27.34,3,3,0,0,0-1.73.78,3.12,3.12,0,0,0-1,1.66,28.23,28.23,0,0,0-.45,5.86,27.64,27.64,0,0,0,.45,5.86,3.17,3.17,0,0,0,1,1.65,3,3,0,0,0,1.7.79q3.09,0.34,9.29.34t9.29-.34a3,3,0,0,0,1.7-.79,3.17,3.17,0,0,0,1-1.65A27.64,27.64,0,0,0,134.6,706.94Zm-17-14.68,2-6.68h-1.69l-1.15,4.4-1.2-4.4h-1.76l0.54,1.56,0.52,1.56a30.94,30.94,0,0,1,1,3.56v4.53h1.67v-4.53h0Zm6.52,1.83v-2.93a3.34,3.34,0,0,0-.47-2,2.1,2.1,0,0,0-1.76-.86,2,2,0,0,0-1.76.86,3.34,3.34,0,0,0-.47,2v2.93a3.34,3.34,0,0,0,.47,2,2,2,0,0,0,1.76.86,2.1,2.1,0,0,0,1.76-.86A3.22,3.22,0,0,0,124.09,694.08Zm4.08,2.71h1.51v-8.35h-1.51v6.38a1.32,1.32,0,0,1-.95.7,0.33,0.33,0,0,1-.36-0.36,3.41,3.41,0,0,1,0-.59v-6.14h-1.51v6.61a4.21,4.21,0,0,0,.14,1.24,1,1,0,0,0,1,.61,2.52,2.52,0,0,0,1.74-1v0.9h0Z" transform="translate(-109.79 -685.58)"/></svg>