<svg id="Layer_1" data-name="Layer 1" xmlns="http://www.w3.org/2000/svg" viewBox="0 0 100.18 30.57"><defs><style>.cls-1{fill:#ef4137;}</style></defs><title>logo</title><path class="cls-1" d="M7.44,24.77a1.11,1.11,0,0,1-.51-0.2L1.12,19a3.35,3.35,0,0,1-.61-0.61,2.2,2.2,0,0,1-.36-0.51A1.41,1.41,0,0,1,0,17.17V16.36a1.41,1.41,0,0,1,.15-0.66c0.15-.2.25-0.41,0.36-0.51l0.61-.61L6.88,8.82a0.86,0.86,0,0,1,.51-0.15,0.65,0.65,0,0,1,.51.2,0.91,0.91,0,0,1,.2.51v1.17a1.16,1.16,0,0,1-.05.2,0.39,0.39,0,0,1-.1.2,0.63,0.63,0,0,1-.1.15,0.4,0.4,0,0,1-.15.2l-0.15.15a0.61,0.61,0,0,0-.2.2,0.72,0.72,0,0,0-.2.2L2.65,16.51a0.54,0.54,0,0,0-.2.31,0.37,0.37,0,0,0,.2.31l4.48,4.43a0.7,0.7,0,0,0,.2.15,0.4,0.4,0,0,0,.2.15L7.69,22l0.15,0.15c0.05,0.05.05,0.1,0.1,0.15s0.05,0.15.1,0.2,0.05,0.15.05,0.2V24a0.65,0.65,0,0,1-.2.51A0.54,0.54,0,0,1,7.44,24.77Z"/><path class="cls-1" d="M13,30.57a0.35,0.35,0,0,1-.2-0.41V30l4.69-29.4c0.1-.41.2-0.61,0.36-0.61h2.75c0.15,0,.2.15,0.2,0.41V0.56L16.15,30c-0.1.41-.2,0.61-0.36,0.61H13Z"/><path class="cls-1" d="M25.27,27.16A0.5,0.5,0,0,1,24.87,27a0.94,0.94,0,0,1-.1-0.61V4.23a1.29,1.29,0,0,1,.1-0.61,0.5,0.5,0,0,1,.41-0.15h2.9a0.5,0.5,0,0,1,.41.15,0.94,0.94,0,0,1,.1.61V13a0.38,0.38,0,0,0,.05.25,0.14,0.14,0,0,0,.15.1h6a0.27,0.27,0,0,0,.15-0.1,0.54,0.54,0,0,0,.1-0.25V4.23a0.89,0.89,0,0,1,.15-0.61,0.5,0.5,0,0,1,.41-0.15h3a0.4,0.4,0,0,1,.36.15,0.94,0.94,0,0,1,.1.61V26.4A1.29,1.29,0,0,1,39,27a0.46,0.46,0,0,1-.36.15h-3a0.38,0.38,0,0,1-.25-0.05l-0.2-.2a1.28,1.28,0,0,1-.1-0.51V16.31c0-.25-0.05-0.36-0.2-0.36h-6c-0.15,0-.2.1-0.2,0.36V26.4a0.89,0.89,0,0,1-.15.61,0.5,0.5,0,0,1-.41.15H25.27Z"/><path class="cls-1" d="M46.47,27.16A0.4,0.4,0,0,1,46.12,27,0.89,0.89,0,0,1,46,26.4V6.52c0-.25-0.05-0.41-0.2-0.41H42A0.22,0.22,0,0,1,41.84,6a1.13,1.13,0,0,1-.05-0.46V4.18a1,1,0,0,1,.1-0.56,0.5,0.5,0,0,1,.41-0.15H53.56a0.4,0.4,0,0,1,.36.15,0.85,0.85,0,0,1,.1.56V5.5a1,1,0,0,1-.1.51,0.66,0.66,0,0,1-.41.1H50.09c-0.15,0-.2.15-0.2,0.41V26.4a1.05,1.05,0,0,1-.15.66,0.5,0.5,0,0,1-.41.15H46.47V27.16Z"/><path class="cls-1" d="M56.92,27.16c-0.31,0-.46-0.25-0.46-0.82v-0.1L57.38,4.33c0-.61.2-0.92,0.51-0.92H61a0.86,0.86,0,0,1,.51.15,0.87,0.87,0,0,1,.31.61l3.36,15.59a0.18,0.18,0,0,0,.05.1h0.1c0.05,0,.05-0.05.05-0.1L68.79,4.28a0.83,0.83,0,0,1,.76-0.82h3.21c0.31,0,.46.36,0.46,0.92l0.92,21.91v0.1c0,0.51-.15.82-0.51,0.82H71.44c-0.31,0-.51-0.31-0.51-0.87l-0.61-17c0-.05,0-0.1-0.05-0.1a0.1,0.1,0,0,0-.1.05L66.55,26.4a0.84,0.84,0,0,1-.66.82H64.61A0.79,0.79,0,0,1,64,26.4l-3.52-17c0-.05-0.05-0.1-0.1-0.05v0.1L59.67,26.29c0,0.61-.15.87-0.46,0.87H56.92Z"/><path class="cls-1" d="M78.93,27.16A0.4,0.4,0,0,1,78.58,27a0.94,0.94,0,0,1-.1-0.61V4.23a1.29,1.29,0,0,1,.1-0.61,0.46,0.46,0,0,1,.36-0.15h3a0.4,0.4,0,0,1,.36.15,0.94,0.94,0,0,1,.1.61v20c0,0.25.1,0.36,0.25,0.36h5.2a0.59,0.59,0,0,1,.36.1,0.69,0.69,0,0,1,.1.51V26.5a1.36,1.36,0,0,1-.1.56,0.43,0.43,0,0,1-.36.1H78.93Z"/><path class="cls-1" d="M92.84,24.77a0.5,0.5,0,0,1-.46-0.2,0.91,0.91,0,0,1-.2-0.51V22.93a0.31,0.31,0,0,1,.05-0.2c0-.05.05-0.1,0.05-0.15a0.19,0.19,0,0,0,.05-0.15,0.27,0.27,0,0,1,.1-0.15,0.27,0.27,0,0,0,.1-0.15,0.73,0.73,0,0,1,.1-0.15l0.15-.15a6609952.75,6609952.75,0,0,0,.31-0.31l4.48-4.59a0.44,0.44,0,0,0,.15-0.31,0.37,0.37,0,0,0-.2-0.31L93.1,11.87a1.39,1.39,0,0,0-.25-0.2,0.72,0.72,0,0,1-.2-0.2l-0.15-.15a0.4,0.4,0,0,1-.15-0.2,0.73,0.73,0,0,0-.1-0.2c-0.05-.1-0.05-0.15-0.1-0.25V9.27a0.65,0.65,0,0,1,.2-0.51,0.65,0.65,0,0,1,.46-0.2,0.82,0.82,0,0,1,.51.2l5.81,5.66L99.72,15a1.78,1.78,0,0,1,.31.46,1.57,1.57,0,0,1,.15.66v1.07c0,0.05-.05.15-0.05,0.2a0.39,0.39,0,0,0-.05.2,0.73,0.73,0,0,1-.1.2,0.63,0.63,0,0,1-.1.15,0.88,0.88,0,0,1-.15.2l-0.15.15-0.2.2a0.72,0.72,0,0,0-.2.2L93.4,24.51A0.87,0.87,0,0,1,92.84,24.77Z"/></svg>